<svg width="426" height="237" viewBox="0 0 426 237" fill="none" xmlns="http://www.w3.org/2000/svg">
<path d="M414.209 91.7692L409.703 103.297L412.897 104.546L417.403 93.0179L414.209 91.7692Z" fill="#6256FF"/>
<path d="M132.735 63.501L130.18 65.7893L138.438 75.0094L140.993 72.7211L132.735 63.501Z" fill="#0CBC8B"/>
<path d="M170.593 104.768L160.687 112.189L162.744 114.934L172.65 107.514L170.593 104.768Z" fill="#6256FF"/>
<path d="M285.171 19.6171L282.821 22.115L291.835 30.5974L294.186 28.0995L285.171 19.6171Z" fill="#6256FF"/>
<path d="M219.627 22.3753L213.458 33.1062L216.431 34.8157L222.6 24.0848L219.627 22.3753Z" fill="#0CBC8B"/>
<path d="M309.208 114.142L306.307 115.973L312.913 126.44L315.814 124.609L309.208 114.142Z" fill="#0CBC8B"/>
<path d="M174.706 165.113L171.638 166.646L177.17 177.719L180.238 176.186L174.706 165.113Z" fill="#0CBC8B"/>
<path d="M129.815 135.98L126.261 147.836L129.546 148.82L133.1 136.964L129.815 135.98Z" fill="#6256FF"/>
<path d="M344.529 172.925L334.249 179.818L336.159 182.667L346.439 175.773L344.529 172.925Z" fill="#6256FF"/>
<path d="M346.068 1.41725e-05L339.9 10.7306L342.873 12.4401L349.042 1.70943L346.068 1.41725e-05Z" fill="#0CBC8B"/>
<path d="M3.19458 87.7884L0 89.0371L4.50595 100.565L7.70053 99.3165L3.19458 87.7884Z" fill="#0CBC8B"/>
<path d="M334.813 73.5467L332.756 76.2922L342.663 83.7126L344.719 80.967L334.813 73.5467Z" fill="#0CBC8B"/>
<path d="M56.5427 22.9737L47.5284 31.4562L49.8789 33.9541L58.8932 25.4716L56.5427 22.9737Z" fill="#6256FF"/>
<path d="M156.386 12.8724L153.413 14.5819L159.582 25.3128L162.555 23.6034L156.386 12.8724Z" fill="#6256FF"/>
<path d="M35.1002 147.604L28.4948 158.072L31.3954 159.902L38.0009 149.435L35.1002 147.604Z" fill="#0CBC8B"/>
<path d="M5.84254 176.278L3.93207 179.129L14.2177 186.023L16.1281 183.172L5.84254 176.278Z" fill="#6256FF"/>
<path d="M402.667 39.5864L399.694 41.2958L405.862 52.0264L408.836 50.317L402.667 39.5864Z" fill="#6256FF"/>
<path d="M273.798 68.83L265.541 78.0501L268.096 80.3384L276.353 71.1183L273.798 68.83Z" fill="#6256FF"/>
<path d="M201.306 172.756L195.774 183.828L198.842 185.361L204.374 174.289L201.306 172.756Z" fill="#0CBC8B"/>
<path d="M246.198 143.623L242.913 144.608L246.467 156.464L249.753 155.479L246.198 143.623Z" fill="#6256FF"/>
<path d="M247.304 150.389L235.614 141.502C235.357 141.307 235.062 141.168 234.748 141.093C234.434 141.018 234.108 141.009 233.791 141.067C233.474 141.125 233.172 141.248 232.905 141.429C232.637 141.61 232.411 141.844 232.239 142.117C231.938 142.632 231.839 143.239 231.96 143.823C232.082 144.406 232.416 144.924 232.897 145.275L235.404 147.18L224.771 144.807C223.594 144.522 221.966 144.926 221.735 146.268C221.612 146.779 221.665 147.316 221.887 147.792C222.108 148.269 222.485 148.656 222.954 148.891C222.949 148.901 222.945 148.912 222.941 148.923C222.941 148.932 222.941 148.941 222.941 148.95L221.125 148.511C220.789 148.43 220.439 148.425 220.1 148.496C219.761 148.568 219.443 148.714 219.168 148.924C218.893 149.134 218.668 149.403 218.511 149.711C218.353 150.019 218.265 150.358 218.255 150.704C218.25 151.249 218.432 151.779 218.771 152.206C219.11 152.633 219.586 152.93 220.118 153.049L220.889 153.235C220.895 153.26 220.904 153.284 220.917 153.305C220.366 153.3 219.83 153.492 219.407 153.845C218.984 154.199 218.7 154.691 218.607 155.235C218.522 155.832 218.665 156.44 219.009 156.936C219.352 157.433 219.87 157.781 220.459 157.913L222.379 158.376C222.347 158.389 222.319 158.409 222.297 158.435C222.274 158.46 222.259 158.491 222.25 158.524C222.243 158.564 222.247 158.605 222.262 158.643C221.77 158.775 221.334 159.065 221.023 159.468C220.711 159.872 220.541 160.366 220.538 160.876C220.546 161.411 220.735 161.928 221.073 162.343C221.411 162.758 221.88 163.047 222.403 163.163L238.598 167.075C240.864 167.622 243.241 167.48 245.426 166.668C247.61 165.855 249.502 164.409 250.86 162.514V162.514C252.03 160.88 252.517 158.854 252.217 156.867C251.918 154.879 250.855 153.087 249.255 151.871L247.304 150.389Z" fill="#E98862"/>
<g opacity="0.2">
<path d="M233.467 151.292C233.454 151.347 233.42 151.394 233.372 151.423C233.324 151.452 233.267 151.462 233.212 151.45L223.103 149.177C223.075 149.171 223.049 149.16 223.026 149.143C223.003 149.127 222.984 149.107 222.968 149.083C222.953 149.059 222.943 149.032 222.938 149.005C222.934 148.977 222.934 148.949 222.941 148.921C222.947 148.894 222.958 148.868 222.975 148.845C222.991 148.822 223.011 148.802 223.035 148.787C223.059 148.772 223.086 148.762 223.113 148.757C223.141 148.752 223.169 148.753 223.197 148.759L233.306 151.031C233.334 151.037 233.36 151.049 233.383 151.065C233.406 151.082 233.426 151.102 233.441 151.126C233.456 151.15 233.466 151.177 233.471 151.205C233.475 151.232 233.475 151.261 233.468 151.289L233.467 151.292Z" fill="#0C0C0C"/>
</g>
<g opacity="0.2">
<path d="M232.589 155.779C232.576 155.834 232.541 155.881 232.493 155.91C232.445 155.94 232.387 155.949 232.332 155.936L221.049 153.402C221.022 153.396 220.996 153.384 220.973 153.368C220.95 153.352 220.93 153.331 220.915 153.307C220.9 153.283 220.89 153.257 220.885 153.229C220.88 153.201 220.881 153.173 220.887 153.145C220.902 153.09 220.936 153.043 220.984 153.013C221.032 152.983 221.089 152.972 221.145 152.983L232.427 155.517C232.455 155.523 232.481 155.535 232.504 155.551C232.527 155.567 232.546 155.588 232.562 155.612C232.577 155.636 232.587 155.662 232.591 155.69C232.596 155.718 232.595 155.746 232.589 155.774V155.779Z" fill="#0C0C0C"/>
</g>
<g opacity="0.2">
<path d="M231.666 160.643C231.652 160.698 231.618 160.745 231.57 160.774C231.523 160.803 231.465 160.813 231.411 160.801L222.411 158.78C222.356 158.767 222.307 158.733 222.277 158.685C222.246 158.637 222.236 158.579 222.249 158.523C222.261 158.468 222.295 158.42 222.343 158.389C222.391 158.359 222.45 158.349 222.505 158.361L231.505 160.382C231.532 160.388 231.558 160.4 231.582 160.416C231.605 160.432 231.624 160.453 231.64 160.477C231.655 160.501 231.665 160.528 231.67 160.555C231.674 160.583 231.674 160.612 231.667 160.639L231.666 160.643Z" fill="#0C0C0C"/>
</g>
<path d="M191.802 89.2658L198.33 76.1116C198.473 75.8226 198.675 75.5666 198.923 75.3599C199.171 75.1532 199.459 75.0004 199.769 74.9112C200.079 74.822 200.404 74.7983 200.724 74.8417C201.043 74.8851 201.351 74.9946 201.626 75.1632C202.124 75.4901 202.484 75.9905 202.634 76.5672C202.785 77.144 202.716 77.7561 202.44 78.2849L201.04 81.1056L209.512 74.2573C210.441 73.4791 212.078 73.1186 212.882 74.2178C213.219 74.6207 213.409 75.1258 213.422 75.6509C213.435 76.1759 213.27 76.6898 212.954 77.1089C212.963 77.1158 212.972 77.1237 212.98 77.1324C212.984 77.14 212.989 77.1479 212.992 77.156L214.425 75.9555C214.69 75.7335 215.001 75.5734 215.337 75.487C215.672 75.4007 216.022 75.3901 216.361 75.4562C216.701 75.5223 217.022 75.6634 217.3 75.8691C217.578 76.0748 217.807 76.34 217.97 76.6454C218.216 77.1314 218.289 77.6874 218.174 78.2204C218.06 78.7533 217.767 79.2309 217.343 79.5733L216.733 80.0839C216.74 80.1083 216.742 80.1337 216.739 80.1589C217.231 79.9096 217.795 79.8432 218.332 79.9718C218.868 80.1004 219.341 80.4155 219.666 80.8608C220.007 81.3586 220.148 81.9669 220.061 82.5641C219.973 83.1614 219.664 83.7037 219.194 84.0828L217.68 85.3506C217.714 85.3476 217.749 85.3528 217.78 85.3658C217.812 85.3788 217.84 85.3991 217.862 85.4252C217.887 85.4576 217.902 85.4965 217.905 85.5371C218.405 85.4365 218.924 85.5029 219.382 85.7261C219.84 85.9492 220.212 86.3168 220.441 86.7723C220.672 87.2554 220.733 87.8023 220.614 88.3243C220.495 88.8464 220.203 89.313 219.786 89.6487L207.014 100.348C205.227 101.844 203.034 102.773 200.716 103.016C198.398 103.258 196.06 102.802 194.003 101.707C192.229 100.763 190.893 99.1644 190.279 97.2511C189.664 95.3378 189.82 93.2604 190.713 91.4601L191.802 89.2658Z" fill="#E98862"/>
<g opacity="0.2">
<path d="M204.601 83.9287C204.637 83.9719 204.689 83.9991 204.745 84.0043C204.801 84.0095 204.857 83.9924 204.901 83.9566L212.95 77.432C212.994 77.3962 213.022 77.3443 213.028 77.2877C213.034 77.2312 213.017 77.1746 212.982 77.1304C212.946 77.0862 212.894 77.0581 212.837 77.0522C212.781 77.0462 212.724 77.063 212.68 77.0989L204.631 83.6235C204.587 83.6592 204.559 83.7108 204.553 83.767C204.547 83.8232 204.564 83.8795 204.599 83.9236L204.601 83.9287Z" fill="#0C0C0C"/>
</g>
<g opacity="0.2">
<path d="M207.38 87.5586C207.417 87.6017 207.469 87.6288 207.525 87.6339C207.581 87.6391 207.637 87.6218 207.68 87.586L216.663 80.3047C216.707 80.2689 216.735 80.2173 216.741 80.161C216.747 80.1048 216.73 80.0486 216.695 80.0045C216.658 79.9623 216.607 79.9356 216.551 79.9297C216.495 79.9238 216.439 79.9392 216.395 79.9728L207.409 87.2529C207.365 87.2886 207.337 87.3402 207.331 87.3964C207.325 87.4526 207.342 87.5089 207.377 87.553L207.38 87.5586Z" fill="#0C0C0C"/>
</g>
<g opacity="0.2">
<path d="M210.368 91.5064C210.404 91.5496 210.456 91.5768 210.512 91.582C210.569 91.5872 210.625 91.5701 210.668 91.5343L217.834 85.7261C217.878 85.6903 217.906 85.6384 217.912 85.5818C217.918 85.5253 217.901 85.4687 217.865 85.4245C217.83 85.3803 217.778 85.3522 217.721 85.3463C217.664 85.3403 217.608 85.3571 217.564 85.393L210.396 91.2011C210.353 91.2369 210.325 91.2885 210.319 91.3447C210.313 91.4009 210.329 91.4571 210.365 91.5013L210.368 91.5064Z" fill="#0C0C0C"/>
</g>
<path d="M45.3184 77.9874C45.3184 77.9874 44.3978 91.7993 41.2907 96.8092C32.3446 111.235 29.7529 127.464 38.7114 135.943C47.67 144.423 104.811 144.54 109.14 125.038C112.784 108.62 104.963 106.854 103.06 93.3115C102.199 87.183 99.8304 74.3323 99.8304 74.3323" fill="#0A0A0A"/>
<path d="M94.351 122.179C94.2524 122.166 93.1578 140.328 72.059 138.745C57.4526 137.65 52.2447 122.152 51.9102 122.152C53.485 121.818 56.1368 121.331 56.8361 120.958C59.1363 119.722 61.981 118.436 62.7236 113.969C63.1523 111.397 62.4256 98.2248 62.649 95.6189L85.0696 100.625C84.7562 106.126 82.5636 118.879 90.2488 121.135C91.5273 121.51 92.9049 121.853 94.351 122.179Z" fill="#E98862"/>
<path opacity="0.5" d="M85.3838 115.925C85.0327 114.793 84.8065 113.626 84.7094 112.445C84.4631 109.75 84.5123 107.036 84.8561 104.352C80.2993 103.736 76.0065 101.855 72.4654 98.9224C72.0491 100.46 69.7592 107.178 70.3933 108.639C71.5908 111.402 77.2215 115.925 85.3838 115.925Z" fill="#0C0C0C"/>
<path d="M82.4848 110.266C73.6449 111.124 62.2078 107.586 59.8386 95.814L57.7009 85.1923C55.3317 73.4208 59.5938 62.6336 70.6772 60.4029C81.761 58.1734 91.966 66.0473 94.3352 77.8192L95.2819 82.5217C96.1908 87.0385 98.256 108.74 82.4848 110.266Z" fill="#E98862"/>
<path opacity="0.1" d="M76.8656 94.8405C78.3203 94.667 79.3964 93.6613 79.2691 92.5943C79.1418 91.5274 77.8593 90.8031 76.4046 90.9767C74.9499 91.1502 73.8739 92.1559 74.0012 93.2229C74.1285 94.2898 75.4109 95.0141 76.8656 94.8405Z" fill="#0C0C0C"/>
<path opacity="0.1" d="M92.2368 90.5749C92.3655 91.6403 93.6496 92.3636 95.1043 92.1921C95.3557 92.1619 95.6032 92.1057 95.843 92.0245C95.9107 90.7541 95.9146 89.5322 95.8777 88.4007C95.4737 88.2996 95.0543 88.2751 94.6412 88.3283C93.1865 88.4998 92.1108 89.5052 92.2368 90.5749Z" fill="#0C0C0C"/>
<path opacity="0.5" d="M85.8092 93.868C85.8164 93.8673 85.8235 93.8662 85.8306 93.8646C86.2798 93.771 86.7235 93.6526 87.1597 93.51C87.8105 93.2922 88.6603 92.9347 88.5437 92.346C88.4091 91.6754 85.1137 84.8083 84.7399 84.0284C84.7246 83.9932 84.7023 83.9614 84.6744 83.935C84.6466 83.9086 84.6137 83.8881 84.5777 83.8747C84.5417 83.8613 84.5034 83.8553 84.465 83.8571C84.4267 83.8588 84.3891 83.8683 84.3545 83.8849C84.3199 83.9015 84.289 83.9249 84.2636 83.9537C84.2383 83.9826 84.219 84.0162 84.2069 84.0527C84.1949 84.0891 84.1903 84.1276 84.1935 84.1659C84.1967 84.2041 84.2075 84.2414 84.2254 84.2753C85.6304 87.1998 87.8933 92.0081 87.9842 92.4596C87.913 92.6701 86.8334 93.0813 85.7191 93.3059C85.6822 93.3119 85.6467 93.3251 85.6149 93.3448C85.583 93.3644 85.5553 93.3902 85.5334 93.4205C85.5115 93.4509 85.4958 93.4853 85.4871 93.5217C85.4785 93.5581 85.4771 93.5959 85.4831 93.6329C85.4891 93.6698 85.5023 93.7052 85.5219 93.7371C85.5416 93.769 85.5673 93.7967 85.5977 93.8186C85.628 93.8405 85.6624 93.8562 85.6988 93.8648C85.7353 93.8735 85.7731 93.8749 85.81 93.8689L85.8092 93.868Z" fill="#0C0C0C"/>
<path d="M48.8572 89.0061L58.7937 87.0652C66.2997 83.9263 68.4293 70.845 68.4293 70.845C68.4293 70.845 77.6927 79.6672 99.8321 74.3324C99.8321 74.3324 95.0228 43.4261 62.3321 52.8095C51.7915 55.8343 44.3249 66.5786 45.4354 80.8094C46.2136 90.7793 48.8572 89.0061 48.8572 89.0061Z" fill="#0A0A0A"/>
<path d="M61.2487 99.262C57.8805 99.9398 54.4248 96.8859 53.7457 93.5168C53.0666 90.1478 55.4246 87.7417 58.7928 87.0634L60.9828 88.9713L64.144 98.6785L61.2487 99.262Z" fill="#E98862"/>
<path d="M87.1276 78.552C87.9703 77.9561 88.9558 77.594 89.9839 77.5025C90.5005 77.4529 91.0216 77.4819 91.5295 77.5882C92.0417 77.6926 92.5388 77.8608 93.0091 78.089L93.0237 78.0959C93.0758 78.1189 93.1348 78.1206 93.1882 78.1006C93.2416 78.0806 93.285 78.0406 93.3093 77.9891C93.3335 77.9375 93.3366 77.8785 93.3179 77.8247C93.2993 77.7708 93.2603 77.7265 93.2093 77.701C92.7109 77.4379 92.1814 77.2385 91.6333 77.1076C91.0813 76.9734 90.5123 76.923 89.9453 76.958C88.7969 77.0214 87.6865 77.3915 86.7297 78.0298C86.6941 78.054 86.6635 78.085 86.6398 78.1209C86.6161 78.1569 86.5998 78.1972 86.5917 78.2396C86.5836 78.2819 86.5839 78.3254 86.5927 78.3676C86.6014 78.4097 86.6184 78.4498 86.6427 78.4854C86.6669 78.521 86.6979 78.5515 86.734 78.5751C86.77 78.5987 86.8104 78.615 86.8527 78.6229C86.8951 78.6309 86.9386 78.6305 86.9807 78.6216C87.0229 78.6128 87.0629 78.5957 87.0984 78.5713L87.1062 78.5662L87.1276 78.552Z" fill="#0C0C0C"/>
<path d="M78.0507 79.8066C76.9223 79.582 75.7544 79.6645 74.6688 80.0454C74.1321 80.2302 73.6263 80.4945 73.1682 80.8295C72.7118 81.1602 72.299 81.5472 71.9394 81.9811C71.9031 82.0243 71.8849 82.0798 71.8886 82.1361C71.8923 82.1924 71.9177 82.245 71.9594 82.283C72.0011 82.321 72.0559 82.3413 72.1122 82.3398C72.1686 82.3383 72.2222 82.315 72.2618 82.2748L72.2734 82.2628C72.6203 81.872 73.015 81.5263 73.4481 81.2338C73.8768 80.9415 74.3471 80.7155 74.8432 80.5637C75.828 80.2544 76.8772 80.2115 77.8839 80.4394L77.9088 80.4458C77.9932 80.4663 78.0824 80.4523 78.1566 80.4071C78.2308 80.3618 78.284 80.2889 78.3045 80.2044C78.325 80.1199 78.311 80.0308 78.2658 79.9566C78.2205 79.8824 78.1476 79.8292 78.0631 79.8087L78.0507 79.8066Z" fill="#0C0C0C"/>
<path d="M58.8006 86.9013C65.4799 84.4146 67.6965 79.8022 68.3791 76.3697C68.8209 74.0805 68.7795 71.7242 68.2578 69.4519L68.0511 69.5089C68.5651 71.7516 68.6048 74.0769 68.1677 76.3358C67.4937 79.7121 65.3089 84.2508 58.7255 86.7011L58.8006 86.9013Z" fill="#0C0C0C"/>
<path d="M111.535 124.34L174.957 145.54L156.336 153.816L187.961 88.9392L213.807 100.984L184.465 166.925C182.981 170.259 180.347 172.949 177.043 174.501C173.74 176.054 169.989 176.366 166.474 175.381L165.844 175.202L101.461 157.126L111.535 124.34Z" fill="#6256FF"/>
<path d="M71.6654 134.204C57.0487 133.515 56.4335 121.109 56.4335 121.109C56.4335 121.109 49.1911 121.577 44.3768 122.229C36.4948 123.295 31.295 125.968 27.1568 130.106C23.3075 133.955 20.964 138.12 23.4439 164.71C25.2395 183.963 23.976 226.311 23.976 226.311H113.047C113.047 226.311 119.267 165.13 120.004 156.464C121.411 139.92 125.387 136.267 117.332 127.745C111.49 121.564 96.4094 121.109 90.3393 121.11C90.2402 121.11 91.571 135.143 71.6654 134.204Z" fill="#6256FF"/>
<path d="M88.7722 96.1883C85.9001 97.6487 82.6233 98.1105 79.4595 97.5007C79.35 97.4802 79.2368 97.4912 79.1334 97.5326C79.0299 97.5739 78.9403 97.6439 78.875 97.7342C78.8098 97.8246 78.7716 97.9316 78.765 98.0429C78.7583 98.1541 78.7834 98.265 78.8374 98.3625C79.7806 100.024 82.0178 102.864 85.8559 101.707C88.334 100.959 89.2708 98.4096 89.6181 96.8323C89.6419 96.7232 89.634 96.6096 89.5954 96.5048C89.5568 96.4001 89.4891 96.3085 89.4003 96.2408C89.3114 96.1732 89.2052 96.1323 89.0939 96.123C88.9826 96.1137 88.871 96.1364 88.7722 96.1883Z" fill="white"/>
<path d="M88.9519 83.4152C89.7183 83.4152 90.3397 82.7938 90.3397 82.0273C90.3397 81.2609 89.7183 80.6395 88.9519 80.6395C88.1854 80.6395 87.564 81.2609 87.564 82.0273C87.564 82.7938 88.1854 83.4152 88.9519 83.4152Z" fill="#0C0C0C"/>
<path d="M75.6163 85.7497C76.3828 85.7497 77.0041 85.1283 77.0041 84.3619C77.0041 83.5954 76.3828 82.974 75.6163 82.974C74.8498 82.974 74.2285 83.5954 74.2285 84.3619C74.2285 85.1283 74.8498 85.7497 75.6163 85.7497Z" fill="#0C0C0C"/>
<path d="M119.806 162.492C119.797 162.493 119.788 162.493 119.779 162.492C119.723 162.485 119.672 162.456 119.637 162.411C119.602 162.367 119.586 162.31 119.593 162.254L120.972 151.073C120.975 151.045 120.984 151.018 120.998 150.993C121.011 150.968 121.03 150.946 121.052 150.929C121.075 150.912 121.1 150.899 121.127 150.892C121.155 150.884 121.183 150.883 121.211 150.887C121.239 150.89 121.266 150.899 121.291 150.913C121.315 150.927 121.337 150.946 121.354 150.968C121.371 150.99 121.384 151.015 121.392 151.043C121.399 151.07 121.401 151.098 121.398 151.126L120.018 162.306C120.012 162.358 119.986 162.405 119.947 162.439C119.908 162.473 119.858 162.492 119.806 162.492V162.492Z" fill="#0C0C0C"/>
<path d="M345.266 76.22C345.266 76.22 339.953 70.2532 340.569 59.0789C341.047 50.4269 347.72 57.424 347.72 57.424C347.72 57.424 348.125 51.1973 352.423 52.6799C356.72 54.1625 357.927 61.0284 357.927 61.0284" fill="#0C0C0C"/>
<path d="M375.127 57.9432C375.127 57.9432 396.587 64.6655 382.737 92.8L380.77 92.5427L376.779 92.0218" fill="#0C0C0C"/>
<path d="M344.598 122.134C344.697 122.121 345.787 140.222 366.816 138.645C381.374 137.554 386.565 122.108 386.899 122.108C385.329 121.774 382.686 121.289 381.989 120.917C379.696 119.686 376.86 118.404 376.121 113.952C375.695 111.386 376.417 98.2604 376.195 95.664L353.848 100.652C354.161 106.134 356.346 118.845 348.686 121.094C347.412 121.467 346.038 121.809 344.598 122.134Z" fill="#E98862"/>
<path opacity="0.52" d="M353.536 115.9C353.885 114.772 354.111 113.609 354.207 112.432C354.453 109.745 354.404 107.04 354.062 104.365C358.604 103.752 362.883 101.877 366.412 98.9541C366.827 100.486 369.109 107.183 368.477 108.639C367.283 111.392 361.67 115.9 353.536 115.9Z" fill="#0C0C0C"/>
<path d="M356.215 109.77C365.015 110.718 376.452 107.318 378.941 95.6113L381.187 85.0484C383.673 73.3437 379.544 62.545 368.522 60.2019C357.5 57.8588 347.244 65.5976 344.755 77.304L343.761 81.9803C343.448 83.5918 343.245 85.2228 343.153 86.8619C342.879 91.1922 342.479 97.7799 344.478 102.688C346.364 107.322 350.593 109.164 356.215 109.77Z" fill="#E98862"/>
<path d="M349.225 82.8012C349.991 82.8012 350.612 82.1798 350.612 81.4134C350.612 80.6469 349.991 80.0255 349.225 80.0255C348.458 80.0255 347.837 80.6469 347.837 81.4134C347.837 82.1798 348.458 82.8012 349.225 82.8012Z" fill="#0C0C0C"/>
<path d="M362.406 84.1891C363.172 84.1891 363.794 83.5677 363.794 82.8012C363.794 82.0347 363.172 81.4134 362.406 81.4134C361.639 81.4134 361.018 82.0347 361.018 82.8012C361.018 83.5677 361.639 84.1891 362.406 84.1891Z" fill="#0C0C0C"/>
<path d="M377.498 99.0321C380.848 99.7443 384.325 96.7379 385.037 93.3882C385.749 90.0384 383.427 87.6143 380.077 86.9022L377.874 88.7796L374.618 98.4199L377.498 99.0321Z" fill="#E98862"/>
<path d="M375.236 92.9701C375.236 92.9701 377.412 76.1372 372.581 74.108C369.365 72.7566 360.282 75.8924 353.035 72.9543C349.865 71.668 346.574 71.861 345.945 73.3543C345.696 73.9455 345.409 64.6787 351.91 58.985C357.086 54.4515 370.834 55.6206 376.602 58.5953C392.572 66.831 380.627 87.7716 380.627 87.7716L378.73 93.3452L375.236 92.9701Z" fill="#0C0C0C"/>
<g opacity="0.52">
<path d="M352.835 94.1745L352.813 94.1711C351.733 93.9443 349.947 93.4422 350.115 92.6357C350.256 91.9665 353.605 85.1246 353.987 84.3469C354.02 84.2799 354.078 84.2288 354.148 84.2047C354.219 84.1805 354.296 84.1854 354.363 84.2182C354.43 84.251 354.481 84.3091 354.505 84.3796C354.529 84.4501 354.524 84.5273 354.492 84.5942C353.006 87.6237 350.762 92.2962 350.666 92.7511C350.732 92.9654 351.81 93.386 352.928 93.6206C352.998 93.6363 353.06 93.6783 353.1 93.738C353.14 93.7978 353.156 93.8706 353.144 93.9416C353.132 94.0126 353.093 94.0763 353.036 94.1196C352.978 94.1629 352.906 94.1826 352.835 94.1745V94.1745Z" fill="#0C0C0C"/>
</g>
<path d="M352.586 77.072C351.525 76.5365 350.339 76.297 349.153 76.3787C348.57 76.4154 347.996 76.5393 347.45 76.7461C346.91 76.9483 346.398 77.218 345.925 77.5488C345.846 77.599 345.79 77.6784 345.769 77.7697C345.748 77.861 345.764 77.9569 345.813 78.0367C345.862 78.1165 345.941 78.1737 346.032 78.1961C346.123 78.2185 346.219 78.2042 346.299 78.1563L346.324 78.1421C346.757 77.8734 347.223 77.6602 347.709 77.5076C348.189 77.3543 348.689 77.2747 349.192 77.2714C350.187 77.2568 351.169 77.5054 352.037 77.9921L352.069 78.0114C352.13 78.0476 352.197 78.0714 352.267 78.0815C352.337 78.0915 352.409 78.0877 352.477 78.0701C352.546 78.0525 352.61 78.0215 352.667 77.9789C352.723 77.9363 352.771 77.883 352.806 77.822C352.842 77.761 352.866 77.6935 352.875 77.6234C352.885 77.5533 352.88 77.482 352.862 77.4136C352.844 77.3452 352.813 77.2811 352.77 77.2249C352.727 77.1687 352.673 77.1215 352.612 77.0861L352.586 77.072Z" fill="#0C0C0C"/>
<path d="M360.521 79.217C361.485 78.9697 362.498 78.9813 363.456 79.2509C363.941 79.3837 364.404 79.5891 364.828 79.8601C365.259 80.1328 365.654 80.4585 366.003 80.8295L366.023 80.8488C366.089 80.9129 366.177 80.9489 366.269 80.9495C366.361 80.9501 366.45 80.9151 366.517 80.8518C366.584 80.7885 366.623 80.7019 366.628 80.6099C366.632 80.518 366.601 80.4278 366.541 80.3583C366.169 79.9174 365.744 79.5251 365.274 79.1908C364.799 78.8508 364.276 78.5838 363.722 78.3985C362.598 78.0144 361.39 77.9403 360.227 78.1841C360.158 78.1991 360.093 78.2276 360.035 78.2678C359.977 78.308 359.928 78.3592 359.89 78.4185C359.813 78.5382 359.787 78.6835 359.817 78.8225C359.847 78.9616 359.932 79.0828 360.051 79.1597C360.171 79.2366 360.316 79.2627 360.455 79.2324L360.483 79.2256L360.521 79.217Z" fill="#0C0C0C"/>
<path d="M351.137 96.7714C354.263 97.5524 357.56 97.2694 360.507 95.967C360.609 95.9225 360.722 95.908 360.832 95.9251C360.942 95.9423 361.045 95.9904 361.129 96.0638C361.213 96.1373 361.274 96.2331 361.305 96.34C361.336 96.4469 361.337 96.5605 361.306 96.6676C360.758 98.4988 359.214 101.77 355.214 101.499C352.631 101.325 351.148 99.0493 350.455 97.5898C350.407 97.4886 350.389 97.3758 350.403 97.2647C350.417 97.1536 350.463 97.0489 350.534 96.9628C350.606 96.8768 350.701 96.813 350.808 96.7791C350.914 96.7452 351.029 96.7425 351.137 96.7714V96.7714Z" fill="white"/>
<path d="M363.541 61.3833C365.034 57.877 364.314 54.212 361.932 53.1972C359.55 52.1825 356.408 54.2022 354.914 57.7084C353.421 61.2146 354.141 64.8796 356.523 65.8944C358.905 66.9091 362.047 64.8895 363.541 61.3833Z" fill="#0C0C0C"/>
<path d="M367.143 134.204C381.76 133.515 382.375 121.109 382.375 121.109C382.375 121.109 389.617 121.577 394.432 122.229C402.314 123.295 407.514 125.968 411.652 130.106C415.501 133.955 417.844 138.12 415.364 164.71C413.569 183.963 414.833 226.311 414.833 226.311H325.762C325.762 226.311 319.542 165.131 318.804 156.464C317.397 139.92 313.422 136.267 321.476 127.745C327.318 121.564 342.399 121.109 348.47 121.11C348.568 121.11 347.239 135.143 367.143 134.204Z" fill="#6256FF"/>
<path d="M318.594 131.576L295.565 180.398L250.15 146.246L232.112 170.233L292.248 215.455C292.786 215.855 293.348 216.221 293.931 216.552C295.65 217.515 297.541 218.13 299.497 218.362C301.452 218.593 303.435 218.438 305.33 217.903C307.226 217.369 308.998 216.467 310.545 215.248C312.092 214.029 313.384 212.517 314.346 210.798L314.607 210.334L349.741 147.622L318.594 131.576Z" fill="#6256FF"/>
<path d="M418.25 226.74H12.6246C12.5109 226.74 12.4018 226.695 12.3214 226.614C12.241 226.534 12.1958 226.425 12.1958 226.311C12.1958 226.197 12.241 226.088 12.3214 226.008C12.4018 225.928 12.5109 225.882 12.6246 225.882H418.25C418.364 225.882 418.473 225.928 418.553 226.008C418.634 226.088 418.679 226.197 418.679 226.311C418.679 226.425 418.634 226.534 418.553 226.614C418.473 226.695 418.364 226.74 418.25 226.74Z" fill="#292A2E"/>
<path d="M330.024 162.54H112.815V236.785H330.024V162.54Z" fill="white"/>
<path d="M330.238 237H112.6V162.325H330.238V237ZM113.029 236.571H329.809V162.754H113.029V236.571Z" fill="#0C0C0C"/>
<path d="M102.089 185.23L115.497 179.242C115.792 179.111 116.111 179.042 116.434 179.04C116.756 179.039 117.076 179.104 117.372 179.233C117.667 179.362 117.933 179.551 118.152 179.788C118.371 180.025 118.538 180.305 118.643 180.61C118.819 181.179 118.777 181.794 118.526 182.334C118.275 182.874 117.832 183.302 117.283 183.534L114.408 184.82L125.302 184.933C126.514 184.924 128.006 185.688 127.926 187.048C127.93 187.573 127.755 188.084 127.431 188.497C127.107 188.91 126.652 189.202 126.141 189.323C126.144 189.334 126.146 189.346 126.146 189.358C126.145 189.367 126.143 189.375 126.141 189.384L128.009 189.371C128.355 189.369 128.697 189.443 129.01 189.59C129.323 189.737 129.6 189.951 129.819 190.218C130.039 190.485 130.197 190.798 130.28 191.133C130.364 191.469 130.372 191.819 130.304 192.158C130.184 192.689 129.886 193.164 129.459 193.503C129.031 193.841 128.501 194.022 127.956 194.016L127.161 194.022C127.15 194.045 127.136 194.066 127.118 194.084C127.656 194.205 128.133 194.513 128.465 194.953C128.796 195.394 128.961 195.938 128.928 196.488C128.875 197.09 128.597 197.649 128.149 198.054C127.702 198.459 127.118 198.681 126.514 198.675L124.54 198.689C124.567 198.708 124.59 198.734 124.606 198.764C124.622 198.794 124.631 198.827 124.632 198.861C124.63 198.901 124.617 198.94 124.594 198.973C125.043 199.214 125.401 199.596 125.612 200.059C125.823 200.523 125.876 201.044 125.763 201.541C125.633 202.06 125.332 202.52 124.908 202.847C124.484 203.174 123.962 203.348 123.427 203.341L106.766 203.46C104.435 203.477 102.153 202.797 100.211 201.508C98.2694 200.219 96.7567 198.38 95.867 196.225V196.225C95.0999 194.368 95.0873 192.284 95.8318 190.418C96.5764 188.551 98.0194 187.048 99.8543 186.228L102.089 185.23Z" fill="#E98862"/>
<g opacity="0.2">
<path d="M115.356 189.264C115.357 189.32 115.38 189.374 115.42 189.413C115.46 189.453 115.514 189.475 115.571 189.475L125.932 189.568C125.989 189.568 126.043 189.546 126.084 189.506C126.124 189.467 126.147 189.412 126.148 189.355C126.149 189.299 126.126 189.244 126.087 189.203C126.047 189.163 125.992 189.14 125.936 189.139L115.575 189.046C115.518 189.046 115.463 189.068 115.423 189.108C115.383 189.149 115.36 189.203 115.36 189.26L115.356 189.264Z" fill="#0C0C0C"/>
</g>
<g opacity="0.2">
<path d="M115.189 193.833C115.19 193.89 115.213 193.944 115.253 193.983C115.293 194.023 115.347 194.045 115.403 194.045L126.966 194.149C127.023 194.149 127.078 194.126 127.118 194.086C127.158 194.046 127.181 193.991 127.181 193.935C127.179 193.878 127.155 193.825 127.116 193.785C127.076 193.745 127.022 193.722 126.966 193.72L115.403 193.616C115.375 193.616 115.347 193.621 115.321 193.632C115.295 193.642 115.271 193.658 115.251 193.678C115.23 193.698 115.214 193.722 115.203 193.748C115.193 193.774 115.187 193.802 115.187 193.83L115.189 193.833Z" fill="#0C0C0C"/>
</g>
<g opacity="0.2">
<path d="M114.979 198.779C114.98 198.835 115.003 198.889 115.043 198.928C115.083 198.968 115.138 198.99 115.194 198.99L124.417 199.073C124.474 199.074 124.529 199.052 124.57 199.012C124.61 198.972 124.633 198.918 124.634 198.861C124.634 198.804 124.612 198.749 124.572 198.709C124.532 198.668 124.478 198.645 124.421 198.644L115.198 198.561C115.141 198.561 115.086 198.584 115.046 198.624C115.006 198.664 114.983 198.719 114.983 198.776L114.979 198.779Z" fill="#0C0C0C"/>
</g>
<path d="M105.927 209.104L31.5887 226.003C29.1191 226.272 26.6209 225.965 24.29 225.106C21.9591 224.247 19.8589 222.859 18.1542 221.052C16.4495 219.245 15.1867 217.068 14.4649 214.691C13.7431 212.314 13.5819 209.802 13.994 207.353L22.5011 138.925C23.2086 134.72 25.5575 130.969 29.0312 128.495C32.5049 126.022 36.8188 125.03 41.0238 125.738C45.2288 126.445 48.9806 128.794 51.4537 132.268C53.9268 135.742 54.9188 140.056 54.2113 144.261L50.1146 193.238L101.763 181.55L105.927 209.104Z" fill="#6256FF"/>
<path d="M39.6632 195.163C39.6094 195.162 39.5577 195.141 39.5184 195.105C39.4791 195.068 39.4551 195.018 39.4512 194.964C39.4472 194.91 39.4636 194.857 39.4971 194.815C39.5306 194.773 39.5787 194.745 39.6319 194.736L49.9907 192.525C50.0186 192.52 50.0471 192.521 50.0745 192.528C50.102 192.534 50.1278 192.546 50.1505 192.563C50.1732 192.58 50.1923 192.601 50.2067 192.625C50.2211 192.65 50.2305 192.677 50.2343 192.705C50.2426 192.761 50.2284 192.818 50.1946 192.864C50.1608 192.909 50.1103 192.94 50.0542 192.948L39.6954 195.16C39.6847 195.162 39.674 195.163 39.6632 195.163V195.163Z" fill="#0C0C0C"/>
<path d="M33.819 226.311C33.7621 226.315 33.7062 226.296 33.6633 226.258C33.6205 226.221 33.5944 226.168 33.5907 226.111C33.587 226.054 33.606 225.998 33.6436 225.955C33.6812 225.912 33.7343 225.886 33.7911 225.882L105.461 209.002L101.399 181.863L50.0598 192.946C50.0266 192.95 49.9928 192.947 49.9612 192.936C49.9296 192.925 49.901 192.906 49.8775 192.883C49.8541 192.858 49.8368 192.829 49.8268 192.797C49.8168 192.765 49.8145 192.731 49.8201 192.698L52.7 164.714C52.7042 164.686 52.7141 164.659 52.7289 164.635C52.7438 164.611 52.7633 164.59 52.7863 164.574C52.8093 164.557 52.8354 164.546 52.863 164.54C52.8906 164.533 52.9191 164.533 52.9469 164.538C53.003 164.547 53.053 164.579 53.0859 164.625C53.1189 164.671 53.1321 164.729 53.1227 164.785L50.293 192.482L101.499 181.39C101.527 181.382 101.556 181.38 101.584 181.384C101.612 181.388 101.64 181.397 101.664 181.412C101.689 181.426 101.711 181.445 101.728 181.468C101.745 181.491 101.757 181.517 101.764 181.545L105.929 209.101C105.942 209.156 105.933 209.213 105.905 209.261C105.877 209.309 105.831 209.344 105.777 209.359L33.8469 226.309C33.8376 226.311 33.8283 226.311 33.819 226.311V226.311Z" fill="#0C0C0C"/>
<path d="M336.719 198.093L323.311 192.104C323.016 191.973 322.698 191.904 322.375 191.903C322.052 191.901 321.733 191.967 321.437 192.095C321.141 192.224 320.875 192.413 320.656 192.65C320.438 192.887 320.27 193.167 320.166 193.472C319.99 194.041 320.031 194.656 320.283 195.196C320.534 195.737 320.977 196.164 321.526 196.396L324.401 197.683L313.506 197.795C312.295 197.786 310.802 198.55 310.883 199.91C310.879 200.435 311.054 200.946 311.378 201.359C311.702 201.773 312.157 202.064 312.668 202.185C312.665 202.197 312.663 202.208 312.662 202.22C312.664 202.229 312.665 202.238 312.668 202.246L310.8 202.233C310.454 202.231 310.112 202.306 309.799 202.452C309.486 202.599 309.209 202.813 308.989 203.08C308.769 203.347 308.612 203.66 308.528 203.995C308.444 204.331 308.436 204.681 308.505 205.02C308.624 205.552 308.922 206.026 309.35 206.365C309.777 206.703 310.308 206.884 310.853 206.878L311.648 206.884C311.658 206.907 311.673 206.928 311.691 206.946C311.153 207.067 310.675 207.375 310.344 207.816C310.012 208.256 309.848 208.8 309.881 209.35C309.934 209.952 310.212 210.511 310.66 210.916C311.107 211.322 311.691 211.543 312.295 211.537L314.27 211.551C314.242 211.57 314.219 211.596 314.203 211.626C314.187 211.656 314.178 211.689 314.177 211.723C314.178 211.763 314.192 211.802 314.215 211.835C313.766 212.076 313.408 212.458 313.197 212.922C312.986 213.386 312.933 213.906 313.046 214.403C313.176 214.922 313.477 215.382 313.901 215.709C314.325 216.036 314.847 216.21 315.382 216.204L332.043 216.322C334.374 216.339 336.657 215.659 338.598 214.37C340.54 213.081 342.053 211.241 342.942 209.086V209.086C343.709 207.229 343.722 205.145 342.977 203.279C342.233 201.412 340.79 199.909 338.955 199.089L336.719 198.093Z" fill="#E98862"/>
<g opacity="0.2">
<path d="M323.452 202.126C323.451 202.182 323.428 202.236 323.388 202.275C323.348 202.315 323.294 202.337 323.238 202.337L312.877 202.43C312.848 202.43 312.821 202.425 312.794 202.415C312.768 202.404 312.745 202.388 312.724 202.369C312.704 202.349 312.688 202.326 312.677 202.3C312.666 202.274 312.661 202.246 312.66 202.218C312.66 202.19 312.665 202.162 312.676 202.136C312.686 202.109 312.702 202.086 312.722 202.066C312.741 202.046 312.765 202.03 312.791 202.019C312.817 202.008 312.845 202.002 312.873 202.001L323.234 201.908C323.291 201.908 323.345 201.931 323.385 201.971C323.425 202.011 323.448 202.066 323.448 202.122L323.452 202.126Z" fill="#0C0C0C"/>
</g>
<g opacity="0.2">
<path d="M323.619 206.696C323.618 206.752 323.596 206.805 323.556 206.845C323.516 206.884 323.463 206.907 323.407 206.907L311.844 207.011C311.787 207.011 311.732 206.989 311.692 206.948C311.652 206.908 311.629 206.854 311.629 206.797C311.631 206.741 311.654 206.687 311.694 206.647C311.734 206.608 311.787 206.584 311.844 206.583L323.406 206.478C323.463 206.478 323.518 206.501 323.558 206.541C323.598 206.581 323.621 206.636 323.621 206.693L323.619 206.696Z" fill="#0C0C0C"/>
</g>
<g opacity="0.2">
<path d="M323.829 211.641C323.828 211.697 323.806 211.751 323.765 211.791C323.725 211.83 323.671 211.852 323.615 211.852L314.391 211.935C314.363 211.936 314.335 211.93 314.309 211.92C314.283 211.909 314.259 211.894 314.239 211.874C314.219 211.854 314.203 211.831 314.192 211.805C314.181 211.779 314.175 211.751 314.175 211.723C314.175 211.695 314.18 211.667 314.191 211.641C314.201 211.615 314.217 211.591 314.237 211.571C314.256 211.551 314.28 211.535 314.306 211.524C314.332 211.513 314.359 211.507 314.388 211.507L323.611 211.423C323.668 211.423 323.722 211.446 323.763 211.486C323.803 211.526 323.825 211.581 323.825 211.638L323.829 211.641Z" fill="#0C0C0C"/>
</g>
<path d="M337.169 221.966L407.22 226.003C409.689 226.272 412.187 225.965 414.518 225.106C416.849 224.247 418.949 222.859 420.654 221.052C422.359 219.245 423.622 217.068 424.343 214.691C425.065 212.314 425.226 209.802 424.814 207.353L416.309 138.923C415.959 136.841 415.202 134.848 414.081 133.059C412.961 131.269 411.499 129.718 409.779 128.493C408.059 127.269 406.115 126.395 404.057 125.922C401.999 125.449 399.868 125.385 397.786 125.736C395.704 126.086 393.711 126.843 391.922 127.963C390.132 129.084 388.581 130.546 387.356 132.266C386.132 133.986 385.258 135.93 384.785 137.988C384.312 140.046 384.248 142.176 384.599 144.258L388.695 196.237L337.476 194.41L337.169 221.966Z" fill="#6256FF"/>
<path d="M399.145 196.02C399.199 196.02 399.251 195.999 399.29 195.962C399.329 195.926 399.354 195.875 399.358 195.822C399.362 195.768 399.345 195.715 399.312 195.672C399.278 195.63 399.23 195.602 399.177 195.594L388.818 195.526C388.79 195.521 388.762 195.522 388.734 195.529C388.707 195.535 388.681 195.548 388.658 195.564C388.635 195.581 388.616 195.602 388.602 195.627C388.587 195.651 388.578 195.678 388.574 195.706C388.566 195.762 388.58 195.819 388.614 195.865C388.648 195.911 388.698 195.941 388.755 195.949L399.113 196.017C399.124 196.019 399.134 196.02 399.145 196.02Z" fill="#0C0C0C"/>
<path d="M404.99 226.311C405.047 226.315 405.103 226.296 405.146 226.258C405.189 226.22 405.215 226.167 405.218 226.11C405.222 226.054 405.203 225.998 405.165 225.955C405.128 225.912 405.075 225.886 405.018 225.882L337.635 221.866L337.837 194.727L388.748 195.949C388.781 195.953 388.815 195.949 388.846 195.938C388.878 195.927 388.907 195.909 388.93 195.885C388.953 195.861 388.971 195.832 388.981 195.8C388.991 195.768 388.993 195.734 388.987 195.701L386.108 164.715C386.104 164.688 386.094 164.661 386.079 164.637C386.064 164.613 386.045 164.592 386.022 164.576C385.999 164.559 385.972 164.548 385.945 164.541C385.917 164.535 385.889 164.535 385.861 164.54C385.833 164.544 385.807 164.554 385.783 164.569C385.759 164.584 385.738 164.604 385.722 164.627C385.705 164.65 385.694 164.675 385.687 164.703C385.681 164.73 385.68 164.759 385.685 164.787L388.517 195.485L337.739 194.254C337.711 194.246 337.683 194.244 337.654 194.248C337.626 194.252 337.599 194.261 337.574 194.275C337.549 194.29 337.528 194.309 337.511 194.332C337.493 194.355 337.481 194.381 337.474 194.409L337.168 221.965C337.155 222.02 337.163 222.077 337.191 222.125C337.22 222.173 337.266 222.208 337.319 222.223L404.961 226.307C404.97 226.309 404.98 226.31 404.99 226.311V226.311Z" fill="#0C0C0C"/>
<path d="M164.311 211.119H158.617L155.423 198.731C155.305 198.29 155.103 197.379 154.819 195.997C154.534 194.615 154.37 193.688 154.326 193.214C154.262 193.795 154.101 194.728 153.842 196.013C153.584 197.298 153.385 198.215 153.246 198.763L150.068 211.119H144.391L138.374 187.538H143.294L146.31 200.41C146.837 202.786 147.219 204.845 147.455 206.587C147.519 205.974 147.667 205.025 147.899 203.74C148.13 202.456 148.348 201.458 148.552 200.748L151.988 187.538H156.714L160.149 200.748C160.3 201.34 160.488 202.243 160.714 203.458C160.94 204.673 161.111 205.716 161.228 206.588C161.336 205.749 161.507 204.703 161.743 203.45C161.978 202.197 162.193 201.184 162.386 200.41L165.387 187.538H170.307L164.311 211.119Z" fill="#0CBC8B"/>
<path d="M186.86 211.119H173.279V187.538H186.86V191.635H178.279V196.812H186.264V200.908H178.279V206.989H186.86V211.119Z" fill="#0CBC8B"/>
<path d="M191.78 211.119V187.538H196.78V206.991H206.345V211.12L191.78 211.119Z" fill="#0CBC8B"/>
<path d="M220.459 191.359C219.612 191.321 218.767 191.494 218.004 191.865C217.24 192.235 216.581 192.79 216.086 193.48C215.054 194.895 214.538 196.865 214.538 199.392C214.538 204.651 216.511 207.281 220.457 207.281C222.518 207.201 224.551 206.781 226.474 206.038V210.231C224.415 211.062 222.21 211.473 219.99 211.441C216.56 211.441 213.936 210.401 212.118 208.32C210.3 206.239 209.392 203.252 209.392 199.359C209.343 197.137 209.801 194.934 210.731 192.916C211.556 191.146 212.897 189.667 214.578 188.673C216.369 187.659 218.4 187.149 220.457 187.197C222.854 187.223 225.214 187.791 227.36 188.859L225.747 192.924C224.88 192.511 223.992 192.144 223.086 191.827C222.243 191.524 221.355 191.366 220.459 191.359V191.359Z" fill="#0CBC8B"/>
<path d="M252.896 199.295C252.896 203.199 251.928 206.199 249.993 208.296C248.057 210.393 245.282 211.441 241.669 211.441C238.056 211.441 235.282 210.393 233.347 208.296C231.411 206.199 230.443 203.188 230.443 199.263C230.443 195.338 231.414 192.34 233.355 190.271C235.296 188.201 238.078 187.166 241.702 187.165C245.325 187.165 248.097 188.209 250.017 190.295C251.937 192.382 252.897 195.382 252.896 199.295ZM235.685 199.295C235.685 201.93 236.186 203.914 237.186 205.247C238.186 206.58 239.681 207.247 241.67 207.247C245.66 207.247 247.654 204.596 247.654 199.295C247.654 193.983 245.67 191.327 241.702 191.327C239.713 191.327 238.212 191.996 237.2 193.335C236.188 194.674 235.683 196.661 235.685 199.295Z" fill="#0CBC8B"/>
<path d="M267.768 211.119L262.09 192.618H261.945C262.149 196.381 262.251 198.892 262.252 200.15V211.119H257.783V187.538H264.59L270.171 205.571H270.268L276.188 187.538H282.995V211.119H278.333V199.956C278.333 199.43 278.341 198.822 278.357 198.134C278.373 197.445 278.445 195.617 278.575 192.65H278.43L272.349 211.119H267.768Z" fill="#0CBC8B"/>
<path d="M302.512 211.119H288.93V187.538H302.511V191.635H293.931V196.812H301.915V200.908H293.931V206.989H302.512V211.119Z" fill="#0CBC8B"/>
</svg>
