<svg width="70" height="67" viewBox="0 0 70 67" fill="none" xmlns="http://www.w3.org/2000/svg">
<path d="M0 8.75C0 6.42936 0.921873 4.20376 2.56282 2.56282C4.20376 0.921873 6.42936 0 8.75 0L61.25 0C63.5706 0 65.7962 0.921873 67.4372 2.56282C69.0781 4.20376 70 6.42936 70 8.75V43.75C70 46.0706 69.0781 48.2962 67.4372 49.9372C65.7962 51.5781 63.5706 52.5 61.25 52.5H19.3113C18.151 52.5002 17.0384 52.9613 16.2181 53.7819L3.73625 66.2637C3.43057 66.5702 3.04085 66.7791 2.61641 66.864C2.19197 66.9488 1.75189 66.9059 1.35187 66.7405C0.951856 66.5752 0.609883 66.2949 0.369238 65.9351C0.128593 65.5753 9.19401e-05 65.1522 0 64.7194L0 8.75ZM21.875 26.25C21.875 25.0897 21.4141 23.9769 20.5936 23.1564C19.7731 22.3359 18.6603 21.875 17.5 21.875C16.3397 21.875 15.2269 22.3359 14.4064 23.1564C13.5859 23.9769 13.125 25.0897 13.125 26.25C13.125 27.4103 13.5859 28.5231 14.4064 29.3436C15.2269 30.1641 16.3397 30.625 17.5 30.625C18.6603 30.625 19.7731 30.1641 20.5936 29.3436C21.4141 28.5231 21.875 27.4103 21.875 26.25ZM39.375 26.25C39.375 25.0897 38.9141 23.9769 38.0936 23.1564C37.2731 22.3359 36.1603 21.875 35 21.875C33.8397 21.875 32.7269 22.3359 31.9064 23.1564C31.0859 23.9769 30.625 25.0897 30.625 26.25C30.625 27.4103 31.0859 28.5231 31.9064 29.3436C32.7269 30.1641 33.8397 30.625 35 30.625C36.1603 30.625 37.2731 30.1641 38.0936 29.3436C38.9141 28.5231 39.375 27.4103 39.375 26.25ZM52.5 30.625C53.6603 30.625 54.7731 30.1641 55.5936 29.3436C56.4141 28.5231 56.875 27.4103 56.875 26.25C56.875 25.0897 56.4141 23.9769 55.5936 23.1564C54.7731 22.3359 53.6603 21.875 52.5 21.875C51.3397 21.875 50.2269 22.3359 49.4064 23.1564C48.5859 23.9769 48.125 25.0897 48.125 26.25C48.125 27.4103 48.5859 28.5231 49.4064 29.3436C50.2269 30.1641 51.3397 30.625 52.5 30.625V30.625Z" fill="#FF7D6B"/>
</svg>
